<?xml version="1.0" standalone="no"?><!DOCTYPE svg PUBLIC "-//W3C//DTD SVG 1.1//EN" "http://www.w3.org/Graphics/SVG/1.1/DTD/svg11.dtd"><svg t="1704937681235" class="icon" viewBox="0 0 1024 1024" version="1.1" xmlns="http://www.w3.org/2000/svg" p-id="1979" xmlns:xlink="http://www.w3.org/1999/xlink" width="200" height="200"><path d="M554.666667 128a117.333333 117.333333 0 0 1 117.333333 117.333333l-0.085333 106.624h106.752a117.333333 117.333333 0 0 1 117.12 110.208L896 469.333333v85.333334a117.333333 117.333333 0 0 1-117.333333 117.333333l-106.752-0.085333 0.085333 106.709333a117.333333 117.333333 0 0 1-110.165333 117.12L554.666667 896h-85.333334a117.333333 117.333333 0 0 1-117.333333-117.333333v-106.709334l-106.666667 0.085334a117.333333 117.333333 0 0 1-117.12-110.208L128 554.666667v-85.333334a117.333333 117.333333 0 0 1 117.333333-117.333333l106.666667-0.042667V245.333333a117.333333 117.333333 0 0 1 110.165333-117.12L469.333333 128h85.333334z m0 64h-85.333334c-29.44 0-53.333333 23.893333-53.333333 53.333333V384a32 32 0 0 1-32 31.957333H245.333333c-29.44 0-53.333333 23.893333-53.333333 53.333334v85.333333c0 29.482667 23.893333 53.333333 53.333333 53.333333H384a32 32 0 0 1 32 32v138.666667c0 29.44 23.893333 53.333333 53.333333 53.333333h85.333334c29.44 0 53.333333-23.893333 53.333333-53.333333V640a32 32 0 0 1 32-32h138.666667c29.44 0 53.333333-23.850667 53.333333-53.333333v-85.333334c0-29.44-23.893333-53.333333-53.333333-53.333333H640a32 32 0 0 1-32-32V245.333333c0-29.44-23.893333-53.333333-53.333333-53.333333z" p-id="1980" fill="#ffffff"></path></svg>