<?xml version="1.0" standalone="no"?><!DOCTYPE svg PUBLIC "-//W3C//DTD SVG 1.1//EN" "http://www.w3.org/Graphics/SVG/1.1/DTD/svg11.dtd"><svg t="1704937691138" class="icon" viewBox="0 0 1024 1024" version="1.1" xmlns="http://www.w3.org/2000/svg" p-id="2193" xmlns:xlink="http://www.w3.org/1999/xlink" width="200" height="200"><path d="M771.797333 692.394667l3.84 0.512c9.088 2.005333 16.213333 9.088 18.176 18.218666l4.693334 21.632c0.426667 2.048 2.048 3.669333 4.096 4.096l21.632 4.693334a23.765333 23.765333 0 0 1 0 46.506666l-21.632 4.693334a5.333333 5.333333 0 0 0-4.096 4.053333l-4.693334 21.632a23.765333 23.765333 0 0 1-46.464 0l-4.693333-21.632a5.333333 5.333333 0 0 0-4.096-4.096l-21.632-4.693333a23.765333 23.765333 0 0 1 0-46.506667l21.632-4.693333a5.333333 5.333333 0 0 0 4.096-4.053334l4.693333-21.632a23.808 23.808 0 0 1 20.693334-18.602666l3.754666-0.128zM543.488 167.466667c16.213333-0.170667 32.128 4.992 45.141333 14.677333l50.133334 37.461333a10.666667 10.666667 0 0 0 9.813333 1.536l59.264-20.096a73.941333 73.941333 0 0 1 93.781333 93.781334l-20.096 59.264a10.666667 10.666667 0 0 0 1.536 9.813333l37.461334 50.133333a73.941333 73.941333 0 0 1-60.245334 118.186667l-62.549333-0.853333a10.666667 10.666667 0 0 0-8.832 4.522666l-36.138667 51.114667a73.941333 73.941333 0 0 1-130.986666-20.778667l-9.557334-30.592-264.192 264.277334a32 32 0 0 1-45.226666-45.226667l264.149333-264.32-30.506667-9.472a73.941333 73.941333 0 0 1-20.778666-130.986667l51.114666-36.138666a10.666667 10.666667 0 0 0 4.48-8.832l-0.810666-62.549334a73.984 73.984 0 0 1 73.045333-74.922666zM770.56 748.8l-2.304 3.84a37.376 37.376 0 0 1-9.856 9.856l-3.84 2.304 3.84 2.261333c3.84 2.645333 7.253333 5.973333 9.856 9.898667l2.304 3.797333 2.261333-3.84a37.376 37.376 0 0 1 9.898667-9.856l3.797333-2.261333-3.84-2.304a37.376 37.376 0 0 1-9.856-9.856l-2.261333-3.84zM544.298667 231.466667a9.941333 9.941333 0 0 0-9.813334 10.112l0.768 62.549333a74.666667 74.666667 0 0 1-31.573333 61.909333l-51.072 36.138667a9.941333 9.941333 0 0 0 2.816 17.621333l59.733333 18.56c23.466667 7.296 41.813333 25.685333 49.152 49.152l18.56 59.733334a9.941333 9.941333 0 0 0 17.621334 2.816l36.138666-51.114667a74.666667 74.666667 0 0 1 61.909334-31.573333l62.549333 0.853333a9.941333 9.941333 0 0 0 8.106667-15.914667l-37.418667-50.133333a74.666667 74.666667 0 0 1-10.837333-68.650667l20.053333-59.264a9.941333 9.941333 0 0 0-12.586667-12.586666l-59.306666 20.053333a74.666667 74.666667 0 0 1-68.608-10.837333L550.4 233.472a9.984 9.984 0 0 0-6.058667-2.005333zM286.933333 282.538667l3.84 0.512c9.088 1.962667 16.213333 9.088 18.176 18.176l4.693334 21.674666c0.426667 2.048 2.048 3.626667 4.096 4.053334l21.632 4.693333a23.765333 23.765333 0 0 1 0 46.506667l-21.632 4.693333a5.333333 5.333333 0 0 0-4.096 4.053333l-4.693334 21.674667a23.765333 23.765333 0 0 1-46.464 0l-4.693333-21.674667a5.333333 5.333333 0 0 0-4.096-4.053333l-21.632-4.693333a23.765333 23.765333 0 0 1 0-46.506667l21.632-4.693333a5.333333 5.333333 0 0 0 4.096-4.053334l4.693333-21.674666a23.808 23.808 0 0 1 20.693334-18.602667l3.754666-0.085333z m-1.194666 56.362666l-2.304 3.84a37.376 37.376 0 0 1-9.856 9.898667l-3.84 2.261333 3.84 2.261334c3.84 2.645333 7.253333 5.973333 9.856 9.898666l2.304 3.797334 2.261333-3.797334a37.376 37.376 0 0 1 9.898667-9.898666l3.797333-2.261334-3.84-2.261333a37.376 37.376 0 0 1-9.856-9.898667l-2.261333-3.84z" p-id="2194" fill="#ffffff"></path></svg>